HIERARCHY
ROOT Pelvis
{
	OFFSET 0.000000 0.000000 0.000000
	CHANNELS 6 Xposition Yposition Zposition Zrotation Yrotation Xrotation 
	JOINT Left_hip
	{
		OFFSET 0.070241 -0.085575 -0.010474
		CHANNELS 3 Zrotation Yrotation Xrotation
		JOINT Left_knee
		{
			OFFSET 0.032125 -0.356873 -0.000555
			CHANNELS 3 Zrotation Yrotation Xrotation
			JOINT Left_ankle
			{
				OFFSET -0.010961 -0.370212 -0.042278
				CHANNELS 3 Zrotation Yrotation Xrotation
				JOINT Left_foot
				{
					OFFSET 0.023322 -0.052281 0.110104
					CHANNELS 3 Zrotation Yrotation Xrotation
					End Site
					{
						OFFSET 0.000000 0.000000 0.000000
					}
				}
			}
		}
	}
	JOINT Right_hip
	{
		OFFSET -0.068518 -0.084320 -0.007402
		CHANNELS 3 Zrotation Yrotation Xrotation
		JOINT Right_knee
		{
			OFFSET -0.037345 -0.364815 -0.003619
			CHANNELS 3 Zrotation Yrotation Xrotation
			JOINT Right_ankle
			{
				OFFSET 0.013394 -0.370006 -0.039954
				CHANNELS 3 Zrotation Yrotation Xrotation
				JOINT Right_foot
				{
					OFFSET -0.019600 -0.045455 0.113223
					CHANNELS 3 Zrotation Yrotation Xrotation
					End Site
					{
						OFFSET 0.000000 0.000000 0.000000
					}
				}
			}
		}
	}
	JOINT Spine1
	{
		OFFSET -0.002404 0.098129 -0.018169
		CHANNELS 3 Zrotation Yrotation Xrotation
		JOINT Spine2
		{
			OFFSET 0.003989 0.127209 -0.001742
			CHANNELS 3 Zrotation Yrotation Xrotation
			JOINT Spine3
			{
				OFFSET 0.001758 0.046641 0.023475
				CHANNELS 3 Zrotation Yrotation Xrotation
				JOINT Neck
				{
					OFFSET -0.003759 0.194901 -0.039982
					CHANNELS 3 Zrotation Yrotation Xrotation
					JOINT Head
					{
						OFFSET 0.003999 0.063756 0.047665
						CHANNELS 3 Zrotation Yrotation Xrotation
						End Site
						{
							OFFSET 0.000000 0.000000 0.000000
						}
					}
				}
				JOINT Left_collar
				{
					OFFSET 0.071816 0.109048 -0.028973
					CHANNELS 3 Zrotation Yrotation Xrotation
					JOINT Left_shoulder
					{
						OFFSET 0.084027 0.032269 -0.006525
						CHANNELS 3 Zrotation Yrotation Xrotation
						JOINT Left_elbow
						{
							OFFSET 0.243854 -0.013992 -0.025905
							CHANNELS 3 Zrotation Yrotation Xrotation
							JOINT Left_wrist
							{
								OFFSET 0.232156 0.008196 -0.000339
								CHANNELS 3 Zrotation Yrotation Xrotation
								JOINT Left_palm
								{
									OFFSET 0.075377 -0.009461 -0.012494
									CHANNELS 3 Zrotation Yrotation Xrotation
									End Site
									{
										OFFSET 0.000000 0.000000 0.000000
									}
								}
							}
						}
					}
				}
				JOINT Right_collar
				{
					OFFSET -0.073768 0.107001 -0.033755
					CHANNELS 3 Zrotation Yrotation Xrotation
					JOINT Right_shoulder
					{
						OFFSET -0.086837 0.032868 -0.009431
						CHANNELS 3 Zrotation Yrotation Xrotation
						JOINT Right_elbow
						{
							OFFSET -0.236446 -0.012544 -0.018747
							CHANNELS 3 Zrotation Yrotation Xrotation
							JOINT Right_wrist
							{
								OFFSET -0.236110 0.006124 -0.004327
								CHANNELS 3 Zrotation Yrotation Xrotation
								JOINT Right_palm
								{
									OFFSET -0.074800 -0.006875 -0.009610
									CHANNELS 3 Zrotation Yrotation Xrotation
									End Site
									{
										OFFSET 0.000000 0.000000 0.000000
									}
								}
							}
						}
					}
				}
			}
		}
	}
}
MOTION
Frames: 13
Frame Time: 0.100000
-0.407796 0.034845 -0.178735 175.110817 12.864178 -17.515354 18.784431 13.921472 -2.012420 3.270588 11.833845 3.832386 -11.011307 12.877065 15.390538 16.384672 9.498117 -17.086624 4.332569 -3.156296 7.237928 1.337203 -2.483340 -0.142086 0.562956 -8.519871 -10.789475 -3.553983 -0.213888 10.600620 2.159656 2.835587 1.041496 1.267505 -5.345451 13.180451 -1.063270 1.906561 -2.280821 0.538339 -0.053255 15.214986 -0.961578 -2.464409 13.061082 -19.364935 -17.028852 2.368747 -53.299495 -15.510973 34.118675 -102.917154 -62.268197 131.291304 5.132789 -19.893259 -7.098106 -25.940385 -11.106520 -9.385311 17.360313 25.375156 2.731458 43.979553 22.888628 28.048124 124.127737 58.564963 145.688465 -7.617527 19.850484 -5.440550 21.401798 7.029918 -2.618830 
-0.397739 0.036794 -0.181737 174.724743 12.600803 -18.376193 19.953987 14.287076 -1.817882 3.572256 11.880484 4.322702 -11.806321 12.876027 16.399581 17.275264 9.702889 -17.744447 5.287959 -2.844451 7.183762 1.539741 -2.529170 0.949267 -0.187586 -8.413080 -11.322784 -2.902370 -0.451646 10.928189 2.129092 2.883866 1.249510 1.738740 -4.992707 13.344690 -0.818537 1.867933 -2.562720 1.441609 0.725663 14.884964 -1.573737 -2.980346 13.112067 -19.430504 -15.921493 2.132023 -53.401282 -15.385728 34.282431 -103.127896 -62.139089 131.320304 5.017435 -20.250858 -7.333626 -26.243348 -11.124250 -9.261504 18.371875 25.000772 2.910412 43.998409 23.107363 28.681409 123.817454 58.847118 145.314100 -7.840263 20.027121 -6.154232 21.410497 6.805197 -2.101369 
-0.392997 0.038342 -0.183674 174.616814 12.802592 -18.737406 20.229420 14.357106 -1.849218 3.795374 11.870408 4.339211 -12.178934 12.741390 17.068326 17.384928 9.864433 -18.073430 5.680687 -2.824176 7.391481 1.549457 -2.551659 0.851739 -0.489271 -8.490457 -11.628074 -2.820013 -0.567991 11.264932 2.617695 2.976049 1.077519 1.572461 -4.769482 13.028946 -0.897282 2.049649 -2.631832 1.408001 0.672449 14.805121 -1.796512 -3.392708 12.826273 -19.483453 -16.177593 1.876326 -53.722109 -15.178436 34.543538 -102.489454 -62.401794 130.566216 4.768260 -20.558487 -7.688313 -26.490367 -11.237528 -9.218212 17.941102 25.366687 2.766591 43.766675 22.797893 28.563166 124.210190 58.883577 145.555688 -7.831089 20.229338 -6.618756 21.641720 6.889726 -2.239686 
-0.389244 0.039213 -0.184925 174.422512 13.332114 -18.887230 20.517773 14.553138 -2.148288 3.744858 11.798064 4.185443 -12.812498 12.626288 17.881669 17.958817 9.869933 -18.322367 5.925671 -2.885670 7.730926 1.717885 -2.691666 0.076166 -0.849722 -8.602441 -11.475829 -2.637045 -0.714819 11.499966 2.929502 2.894719 0.920134 1.648759 -4.894750 12.743032 -0.865375 1.954155 -2.637955 1.363598 0.801986 14.889170 -2.161170 -3.194854 12.988345 -19.746679 -15.907643 1.869730 -53.776022 -15.138612 34.493333 -102.212901 -62.772205 130.029464 5.057576 -20.663638 -8.151664 -26.629312 -11.170944 -8.854530 17.998867 25.190661 2.533956 43.648058 22.875637 28.706673 123.935325 58.850021 145.088782 -7.901206 20.287968 -6.833574 21.650009 6.903631 -2.069502 
-0.386276 0.039692 -0.186984 174.474602 13.466301 -18.841378 20.360764 14.644504 -1.886338 3.831409 11.945558 3.049263 -13.004831 12.626362 18.624820 18.075158 9.891687 -18.439395 6.028419 -2.923108 7.451875 1.723786 -2.893780 0.146661 -0.815775 -8.613802 -11.440089 -2.652037 -0.571210 11.622197 3.106681 2.899705 1.036051 1.744755 -4.784784 12.721594 -0.795735 2.008574 -2.619109 1.290660 1.073441 14.835809 -2.245885 -3.294564 13.042983 -19.582252 -15.904894 1.819283 -53.804464 -15.323463 34.613126 -102.256963 -62.543101 130.116334 5.019847 -20.882050 -8.065806 -26.755706 -11.349106 -9.006241 18.222655 25.113201 2.668469 43.762930 22.565198 28.728817 124.225500 59.002318 145.293283 -7.808815 20.407163 -6.795789 21.716253 7.047874 -2.298165 
-0.383924 0.039814 -0.188149 174.450010 13.753916 -18.523365 20.186873 14.537496 -1.914996 3.786522 11.908477 1.847815 -13.148179 12.771750 19.359061 18.256120 9.856346 -18.376977 6.133579 -2.872479 7.269485 1.808214 -3.007251 -0.490313 -0.811094 -8.714695 -11.132631 -2.746262 -0.504072 11.726211 3.140651 2.876869 0.978243 1.751754 -4.810264 12.632749 -0.763687 2.002919 -2.618642 1.178789 0.974909 14.780555 -2.142431 -3.264776 13.062456 -19.618059 -15.909899 1.847868 -53.799226 -15.337577 34.637022 -102.143844 -62.576886 129.978690 5.175983 -20.866053 -8.063347 -26.703501 -11.322788 -8.921094 18.256980 25.050203 2.627530 43.810198 22.463112 28.771088 124.187843 59.029045 145.219216 -7.860088 20.385507 -6.599320 21.670841 7.107886 -2.357999 
-0.381920 0.040063 -0.188850 174.363781 13.782640 -18.153873 20.172444 14.700321 -1.972224 3.815552 12.240856 0.842609 -13.418893 12.786859 20.067464 18.395645 9.812405 -18.330971 6.328341 -2.848661 7.166736 1.901015 -3.030017 -1.342173 -0.818292 -8.663178 -10.787246 -2.730784 -0.473383 11.889620 3.260848 2.895854 0.907638 1.663652 -4.738579 12.441840 -0.824995 2.064247 -2.643115 1.139636 0.785439 14.831927 -2.199961 -3.459567 13.319397 -19.634904 -15.884184 1.733583 -53.879965 -15.336251 34.827626 -101.836989 -62.647457 129.643664 5.328019 -20.957239 -8.182403 -26.594142 -11.323944 -8.864052 18.168767 25.045468 2.573470 43.694253 22.529450 28.809797 124.123259 59.019330 145.079590 -8.065677 20.430727 -6.497959 21.549096 7.157784 -2.481546 
-0.379556 0.040398 -0.189193 174.318786 13.487691 -17.852435 20.361289 14.873165 -1.979329 3.842733 12.574166 0.309596 -13.591707 12.846589 20.554939 18.491505 9.807517 -18.350538 6.562221 -2.696626 6.853735 1.986001 -3.031419 -1.513379 -0.824759 -8.514278 -10.730084 -2.727762 -0.467061 11.997868 3.246857 2.943433 0.900793 1.618901 -4.551200 12.344846 -0.856803 2.152943 -2.714932 1.223172 0.884645 14.894676 -2.291537 -3.653917 13.421886 -19.444252 -15.708256 1.525770 -54.023931 -15.303995 35.018172 -101.741424 -62.632414 129.626938 5.383896 -21.050219 -8.290107 -26.420786 -11.239938 -8.845267 18.117626 25.052535 2.556274 43.779543 22.746052 28.995212 123.943443 59.061923 144.954820 -8.272585 20.464509 -6.522469 21.381433 7.083987 -2.472850 
-0.377692 0.040547 -0.188399 174.198692 13.504511 -17.739204 20.473193 14.950313 -1.924436 3.917635 12.739602 -0.181687 -13.738601 12.914896 20.939741 18.643726 9.803598 -18.318894 6.800612 -2.661143 6.791239 2.035556 -3.120928 -1.674497 -0.954895 -8.536226 -10.708718 -2.590316 -0.497751 12.143600 3.207379 2.933452 0.899868 1.625119 -4.520619 12.312701 -0.833161 2.143701 -2.760629 1.251519 1.069234 14.880087 -2.362017 -3.605054 13.516302 -19.431485 -15.662327 1.475905 -54.068533 -15.338884 35.122706 -101.635564 -62.665280 129.336909 5.242042 -21.081183 -8.476899 -26.460762 -11.257500 -8.851972 18.168724 25.008466 2.542616 43.677560 22.767701 29.067384 124.070704 59.089087 144.868201 -8.137216 20.468509 -6.798048 21.407813 7.080520 -2.470556 
-0.376446 0.040606 -0.187548 174.123631 13.621112 -17.647907 20.511553 14.994911 -1.894701 3.950092 12.779100 -0.575209 -13.806631 12.930066 21.229367 18.655530 9.827594 -18.351564 6.946356 -2.669693 6.691765 2.055889 -3.193539 -1.668816 -1.016902 -8.615533 -10.789088 -2.547283 -0.509651 12.244933 3.209342 2.905745 0.918873 1.615819 -4.506626 12.210030 -0.821857 2.142245 -2.750775 1.277179 1.166842 14.807494 -2.386570 -3.557372 13.620832 -19.349658 -15.696825 1.429895 -54.064298 -15.401401 35.145594 -101.628036 -62.608011 129.450302 5.253104 -20.998093 -8.328763 -26.468122 -11.308487 -8.859300 18.140001 25.000126 2.526468 43.697315 22.830130 29.091935 124.039393 59.073657 144.982019 -8.224391 20.386041 -6.591457 21.435602 7.139825 -2.528411 
-0.375545 0.040665 -0.186770 174.123413 13.608993 -17.620499 20.579704 15.011733 -1.897601 3.990242 12.782076 -0.553234 -13.870217 12.957833 21.298040 18.720524 9.821089 -18.412685 7.040824 -2.632098 6.668175 2.035204 -3.187722 -1.602265 -1.066584 -8.664646 -10.896655 -2.505396 -0.471901 12.325463 3.250962 2.941786 0.928158 1.645038 -4.449914 12.209345 -0.798854 2.179867 -2.780385 1.319379 1.229464 14.808256 -2.415636 -3.619379 13.677789 -19.319535 -15.697732 1.409868 -54.059852 -15.443273 35.177977 -101.619671 -62.556251 129.387609 5.272289 -21.084868 -8.436656 -26.525610 -11.335908 -8.862538 18.177925 25.064911 2.573522 43.609263 22.826254 29.074060 124.079913 59.102763 144.949769 -8.291206 20.463187 -6.746542 21.467086 7.137773 -2.508792 
-0.374880 0.040750 -0.186281 174.135179 13.502033 -17.582948 20.685212 15.107610 -1.958261 4.020593 12.887083 -0.365051 -13.947363 12.925270 21.328229 18.762898 9.857161 -18.483209 7.117704 -2.581480 6.579600 2.029104 -3.191145 -1.444899 -1.136691 -8.623577 -11.026168 -2.419208 -0.501910 12.407703 3.355903 2.946571 0.940876 1.704772 -4.386424 12.094342 -0.775341 2.206783 -2.813846 1.408128 1.311933 14.815196 -2.533169 -3.675000 13.730306 -19.287141 -15.590135 1.311800 -54.170558 -15.424990 35.259156 -101.460871 -62.575752 129.213618 5.230368 -21.137988 -8.538336 -26.560382 -11.359404 -8.845547 18.203111 25.035568 2.548747 43.564384 22.868231 29.130366 124.015947 59.117956 144.873308 -8.329208 20.487278 -6.807754 21.484482 7.144654 -2.523199 
-0.374010 0.040876 -0.185827 174.128224 13.434152 -17.600296 20.828078 15.196743 -1.988897 4.048682 12.969152 -0.158084 -14.023967 12.857448 21.400923 18.746541 9.934658 -18.621721 7.208220 -2.563396 6.572977 2.023647 -3.161441 -1.335491 -1.174896 -8.595458 -11.157700 -2.426895 -0.544882 12.465891 3.424900 2.914906 0.940122 1.761270 -4.402507 12.009107 -0.747812 2.184276 -2.863160 1.503064 1.414308 14.745677 -2.592379 -3.754704 13.724836 -19.189263 -15.588239 1.255476 -54.157922 -15.459609 35.285921 -101.207134 -62.417350 129.083431 4.657300 -21.210501 -8.343998 -26.605279 -11.441774 -8.943140 18.178103 25.023198 2.493988 43.591599 22.871292 29.158917 123.961863 59.145738 144.949336 -8.041519 20.480772 -6.638757 21.542621 7.189769 -2.609646 
